<svg width="362" height="182" viewBox="0 0 362 182" fill="none" xmlns="http://www.w3.org/2000/svg">
<path d="M360.3 57.9569C360.452 59.1651 360.572 59.2859 361.811 59.4671C360.603 59.6183 360.482 59.7391 360.3 60.9774C360.149 59.7692 360.028 59.6484 358.789 59.4671C359.998 59.3162 360.119 59.1651 360.3 57.9569Z" fill="white" fill-opacity="0.1"/>
<path d="M264.061 66.2942C264.212 67.5024 264.333 67.6231 265.572 67.8044C264.363 67.9556 264.242 68.0763 264.061 69.3146C263.91 68.1065 263.789 67.9857 262.55 67.8044C263.759 67.6535 263.879 67.5024 264.061 66.2942Z" fill="white" fill-opacity="0.1"/>
<path d="M64.7641 -5.4359e-05C64.9152 1.20812 65.0361 1.32889 66.2751 1.51017C65.0663 1.66132 64.9454 1.78208 64.7641 3.02039C64.613 1.81221 64.4921 1.69144 63.2532 1.51017C64.4619 1.35927 64.5828 1.20812 64.7641 -5.4359e-05Z" fill="white" fill-opacity="0.1"/>
<path d="M41.059 100.251C41.059 99.6341 41.5595 99.1338 42.1771 99.1338C42.7947 99.1338 43.2951 99.6341 43.2951 100.251C43.2951 100.869 42.7947 101.369 42.1771 101.369C41.5595 101.369 41.059 100.869 41.059 100.251Z" fill="white" fill-opacity="0.1"/>
<path d="M297.772 175.712C297.772 175.095 298.272 174.594 298.89 174.594C299.507 174.594 300.008 175.095 300.008 175.712C300.008 176.329 299.507 176.829 298.89 176.829C298.272 176.829 297.772 176.329 297.772 175.712Z" fill="white" fill-opacity="0.1"/>
<path d="M324.405 132.433C324.405 131.816 324.905 131.315 325.523 131.315C326.14 131.315 326.641 131.816 326.641 132.433C326.641 133.05 326.14 133.55 325.523 133.55C324.905 133.55 324.405 133.05 324.405 132.433Z" fill="white" fill-opacity="0.1"/>
<path d="M289.616 43.1854C289.616 42.5681 290.116 42.0676 290.734 42.0676C291.351 42.0676 291.852 42.5681 291.852 43.1854C291.852 43.8025 291.351 44.303 290.734 44.303C290.116 44.303 289.616 43.8025 289.616 43.1854Z" fill="white" fill-opacity="0.1"/>
<path d="M269.597 151.668C269.597 151.05 270.098 150.55 270.715 150.55C271.333 150.55 271.833 151.05 271.833 151.668C271.833 152.285 271.333 152.785 270.715 152.785C270.098 152.785 269.597 152.285 269.597 151.668Z" fill="white" fill-opacity="0.1"/>
<path d="M285.273 108.183C286.28 107.737 287.458 108.192 287.904 109.199C288.35 110.205 287.895 111.383 286.887 111.828C285.88 112.274 284.702 111.819 284.256 110.812C283.81 109.806 284.266 108.629 285.273 108.183Z" fill="white" fill-opacity="0.15"/>
<path d="M138.569 113.728C138.569 112.627 139.462 111.735 140.563 111.735C141.665 111.735 142.558 112.627 142.558 113.728C142.558 114.829 141.665 115.722 140.563 115.722C139.462 115.722 138.569 114.829 138.569 113.728Z" fill="white" fill-opacity="0.15"/>
<path d="M204.709 146.695C205.487 145.917 206.75 145.917 207.529 146.695C208.308 147.474 208.308 148.736 207.529 149.514C206.75 150.293 205.487 150.293 204.709 149.514C203.93 148.736 203.93 147.474 204.709 146.695Z" fill="white" fill-opacity="0.15"/>
<path d="M142.672 44.2583C142.823 45.4665 142.944 45.5872 144.183 45.7685C142.974 45.9197 142.853 46.0404 142.672 47.2787C142.521 46.0706 142.4 45.9498 141.161 45.7685C142.369 45.6176 142.49 45.4665 142.672 44.2583Z" fill="white" fill-opacity="0.1"/>
<path d="M1.51076 34.031C1.66185 35.2392 1.78273 35.36 3.02173 35.5412C1.81296 35.6924 1.69209 35.8132 1.51076 37.0515C1.35968 35.8433 1.23879 35.7225 -0.000191221 35.5412C1.20858 35.3903 1.32945 35.2392 1.51076 34.031Z" fill="white" fill-opacity="0.1"/>
</svg>
